<?xml version="1.0" encoding="UTF-8"?>
<svg xmlns="http://www.w3.org/2000/svg" width="1024" height="1024" viewBox="0 0 1254 1254" role="img" aria-label="WC26 Crystal Ball Trophy logo">
  <title>WC26 Crystal Ball Trophy Logo</title>
  <rect width="100%" height="100%" fill="#000000"/>
  <path d="M 612.0 156.0 L 582.0 162.0 L 558.0 171.0 L 515.0 199.0 L 483.0 237.0 L 463.0 282.0 L 457.0 315.0 L 457.0 340.0 L 464.0 376.0 L 486.0 422.0 L 513.0 442.0 L 538.0 453.0 L 525.0 459.0 L 528.0 463.0 L 527.0 482.0 L 525.0 484.0 L 512.0 477.0 L 502.0 478.0 L 492.0 485.0 L 486.0 498.0 L 483.0 496.0 L 468.0 466.0 L 459.0 438.0 L 453.0 399.0 L 453.0 366.0 L 448.0 358.0 L 439.0 363.0 L 432.0 378.0 L 427.0 404.0 L 427.0 428.0 L 434.0 468.0 L 449.0 510.0 L 466.0 543.0 L 503.0 601.0 L 516.0 630.0 L 539.0 715.0 L 554.0 756.0 L 563.0 800.0 L 564.0 829.0 L 560.0 860.0 L 529.0 952.0 L 512.0 972.0 L 511.0 996.0 L 492.0 1023.0 L 487.0 1050.0 L 498.0 1060.0 L 516.0 1067.0 L 557.0 1075.0 L 606.0 1079.0 L 670.0 1078.0 L 743.0 1066.0 L 764.0 1057.0 L 772.0 1046.0 L 767.0 1024.0 L 747.0 994.0 L 746.0 971.0 L 730.0 953.0 L 708.0 902.0 L 695.0 849.0 L 694.0 804.0 L 700.0 767.0 L 719.0 713.0 L 744.0 623.0 L 758.0 594.0 L 795.0 535.0 L 814.0 494.0 L 827.0 446.0 L 829.0 401.0 L 823.0 374.0 L 818.0 364.0 L 808.0 358.0 L 804.0 364.0 L 802.0 414.0 L 796.0 443.0 L 786.0 472.0 L 771.0 499.0 L 766.0 486.0 L 756.0 478.0 L 745.0 477.0 L 732.0 484.0 L 729.0 478.0 L 729.0 463.0 L 732.0 459.0 L 728.0 462.0 L 728.0 488.0 L 722.0 501.0 L 722.0 517.0 L 736.0 533.0 L 718.0 546.0 L 692.0 574.0 L 678.0 600.0 L 670.0 626.0 L 684.0 598.0 L 702.0 573.0 L 721.0 554.0 L 758.0 528.0 L 782.0 498.0 L 803.0 449.0 L 811.0 408.0 L 812.0 377.0 L 815.0 377.0 L 821.0 404.0 L 818.0 450.0 L 805.0 494.0 L 789.0 528.0 L 728.0 624.0 L 579.0 822.0 L 629.0 627.0 L 644.0 582.0 L 658.0 560.0 L 656.0 577.0 L 669.0 551.0 L 686.0 534.0 L 677.0 534.0 L 698.0 518.0 L 717.0 456.0 L 724.0 449.0 L 740.0 444.0 L 767.0 428.0 L 778.0 414.0 L 796.0 375.0 L 803.0 336.0 L 801.0 299.0 L 788.0 257.0 L 767.0 222.0 L 741.0 195.0 L 711.0 175.0 L 679.0 162.0 L 650.0 156.0 Z
M 763.0 1040.0 L 763.0 1046.0 L 759.0 1050.0 L 749.0 1055.0 L 747.0 1055.0 L 740.0 1058.0 L 737.0 1058.0 L 733.0 1060.0 L 725.0 1061.0 L 724.0 1062.0 L 720.0 1062.0 L 719.0 1063.0 L 715.0 1063.0 L 714.0 1064.0 L 709.0 1064.0 L 708.0 1065.0 L 702.0 1065.0 L 701.0 1066.0 L 685.0 1067.0 L 684.0 1068.0 L 674.0 1068.0 L 673.0 1069.0 L 658.0 1069.0 L 657.0 1070.0 L 598.0 1070.0 L 597.0 1069.0 L 583.0 1069.0 L 582.0 1068.0 L 572.0 1068.0 L 571.0 1067.0 L 555.0 1066.0 L 554.0 1065.0 L 543.0 1064.0 L 542.0 1063.0 L 538.0 1063.0 L 537.0 1062.0 L 533.0 1062.0 L 532.0 1061.0 L 528.0 1061.0 L 527.0 1060.0 L 516.0 1058.0 L 515.0 1057.0 L 510.0 1056.0 L 507.0 1054.0 L 505.0 1054.0 L 501.0 1052.0 L 495.0 1047.0 L 496.0 1038.0 L 498.0 1034.0 L 499.0 1028.0 L 507.0 1013.0 L 517.0 1001.0 L 520.0 1001.0 L 532.0 1006.0 L 535.0 1006.0 L 536.0 1007.0 L 539.0 1007.0 L 540.0 1008.0 L 543.0 1008.0 L 544.0 1009.0 L 547.0 1009.0 L 548.0 1010.0 L 558.0 1011.0 L 559.0 1012.0 L 564.0 1012.0 L 565.0 1013.0 L 571.0 1013.0 L 572.0 1014.0 L 580.0 1014.0 L 581.0 1015.0 L 594.0 1015.0 L 595.0 1016.0 L 640.0 1017.0 L 641.0 1016.0 L 661.0 1016.0 L 662.0 1015.0 L 683.0 1014.0 L 684.0 1013.0 L 690.0 1013.0 L 691.0 1012.0 L 696.0 1012.0 L 697.0 1011.0 L 708.0 1010.0 L 709.0 1009.0 L 712.0 1009.0 L 713.0 1008.0 L 724.0 1006.0 L 725.0 1005.0 L 733.0 1003.0 L 738.0 1000.0 L 741.0 1000.0 L 753.0 1015.0 L 759.0 1027.0 L 759.0 1029.0 L 762.0 1036.0 L 762.0 1039.0 Z
M 739.0 977.0 L 739.0 990.0 L 736.0 993.0 L 734.0 993.0 L 731.0 995.0 L 729.0 995.0 L 725.0 997.0 L 722.0 997.0 L 718.0 999.0 L 714.0 999.0 L 713.0 1000.0 L 710.0 1000.0 L 709.0 1001.0 L 705.0 1001.0 L 704.0 1002.0 L 700.0 1002.0 L 699.0 1003.0 L 694.0 1003.0 L 693.0 1004.0 L 678.0 1005.0 L 677.0 1006.0 L 668.0 1006.0 L 667.0 1007.0 L 653.0 1007.0 L 652.0 1008.0 L 602.0 1008.0 L 601.0 1007.0 L 588.0 1007.0 L 587.0 1006.0 L 577.0 1006.0 L 576.0 1005.0 L 569.0 1005.0 L 568.0 1004.0 L 563.0 1004.0 L 562.0 1003.0 L 557.0 1003.0 L 556.0 1002.0 L 551.0 1002.0 L 550.0 1001.0 L 547.0 1001.0 L 546.0 1000.0 L 538.0 999.0 L 531.0 996.0 L 525.0 995.0 L 521.0 993.0 L 519.0 991.0 L 519.0 979.0 L 520.0 978.0 L 520.0 975.0 L 522.0 971.0 L 528.0 965.0 L 536.0 969.0 L 538.0 969.0 L 545.0 972.0 L 548.0 972.0 L 549.0 973.0 L 552.0 973.0 L 553.0 974.0 L 557.0 974.0 L 558.0 975.0 L 562.0 975.0 L 563.0 976.0 L 567.0 976.0 L 568.0 977.0 L 574.0 977.0 L 575.0 978.0 L 583.0 978.0 L 584.0 979.0 L 592.0 979.0 L 593.0 980.0 L 607.0 980.0 L 608.0 981.0 L 647.0 981.0 L 648.0 980.0 L 663.0 980.0 L 664.0 979.0 L 673.0 979.0 L 674.0 978.0 L 680.0 978.0 L 681.0 977.0 L 687.0 977.0 L 688.0 976.0 L 693.0 976.0 L 694.0 975.0 L 703.0 974.0 L 704.0 973.0 L 707.0 973.0 L 708.0 972.0 L 711.0 972.0 L 712.0 971.0 L 720.0 969.0 L 730.0 964.0 L 736.0 970.0 Z
M 689.0 779.0 L 690.0 781.0 L 689.0 782.0 L 688.0 794.0 L 687.0 795.0 L 686.0 810.0 L 685.0 811.0 L 685.0 817.0 L 684.0 818.0 L 684.0 823.0 L 683.0 824.0 L 683.0 827.0 L 682.0 828.0 L 681.0 836.0 L 680.0 837.0 L 677.0 848.0 L 675.0 851.0 L 673.0 859.0 L 665.0 875.0 L 661.0 880.0 L 660.0 883.0 L 658.0 885.0 L 656.0 889.0 L 653.0 892.0 L 650.0 897.0 L 644.0 903.0 L 644.0 904.0 L 632.0 916.0 L 631.0 916.0 L 625.0 922.0 L 624.0 922.0 L 612.0 932.0 L 606.0 935.0 L 604.0 937.0 L 601.0 938.0 L 596.0 942.0 L 576.0 952.0 L 574.0 952.0 L 571.0 954.0 L 569.0 954.0 L 566.0 956.0 L 560.0 957.0 L 559.0 958.0 L 560.0 959.0 L 561.0 958.0 L 572.0 957.0 L 573.0 956.0 L 580.0 955.0 L 581.0 954.0 L 586.0 953.0 L 589.0 951.0 L 594.0 950.0 L 597.0 948.0 L 599.0 948.0 L 614.0 940.0 L 616.0 938.0 L 626.0 932.0 L 636.0 923.0 L 637.0 923.0 L 652.0 908.0 L 652.0 907.0 L 656.0 903.0 L 656.0 902.0 L 660.0 898.0 L 662.0 894.0 L 665.0 891.0 L 666.0 888.0 L 670.0 883.0 L 672.0 878.0 L 674.0 876.0 L 676.0 872.0 L 676.0 870.0 L 679.0 865.0 L 679.0 863.0 L 682.0 858.0 L 684.0 850.0 L 686.0 847.0 L 687.0 847.0 L 689.0 849.0 L 689.0 857.0 L 690.0 858.0 L 690.0 863.0 L 691.0 864.0 L 692.0 874.0 L 693.0 875.0 L 694.0 883.0 L 696.0 887.0 L 696.0 890.0 L 697.0 891.0 L 697.0 894.0 L 699.0 898.0 L 699.0 901.0 L 700.0 902.0 L 701.0 907.0 L 703.0 910.0 L 704.0 915.0 L 706.0 918.0 L 706.0 920.0 L 710.0 928.0 L 710.0 930.0 L 714.0 937.0 L 714.0 939.0 L 723.0 957.0 L 721.0 959.0 L 717.0 961.0 L 715.0 961.0 L 708.0 964.0 L 705.0 964.0 L 704.0 965.0 L 700.0 965.0 L 699.0 966.0 L 695.0 966.0 L 694.0 967.0 L 690.0 967.0 L 689.0 968.0 L 676.0 969.0 L 675.0 970.0 L 666.0 970.0 L 665.0 971.0 L 652.0 971.0 L 651.0 972.0 L 604.0 972.0 L 603.0 971.0 L 591.0 971.0 L 590.0 970.0 L 581.0 970.0 L 580.0 969.0 L 567.0 968.0 L 566.0 967.0 L 562.0 967.0 L 561.0 966.0 L 552.0 965.0 L 551.0 964.0 L 548.0 964.0 L 541.0 961.0 L 538.0 961.0 L 535.0 958.0 L 535.0 957.0 L 540.0 947.0 L 540.0 945.0 L 544.0 937.0 L 546.0 935.0 L 549.0 928.0 L 551.0 926.0 L 554.0 920.0 L 557.0 917.0 L 559.0 913.0 L 565.0 906.0 L 565.0 905.0 L 572.0 898.0 L 572.0 897.0 L 601.0 868.0 L 602.0 868.0 L 629.0 843.0 L 630.0 843.0 L 658.0 816.0 L 658.0 815.0 L 667.0 806.0 L 667.0 805.0 L 677.0 794.0 L 677.0 793.0 L 683.0 786.0 L 685.0 782.0 L 688.0 779.0 Z
M 729.0 639.0 L 730.0 640.0 L 729.0 641.0 L 729.0 643.0 L 726.0 650.0 L 725.0 657.0 L 723.0 661.0 L 723.0 664.0 L 722.0 665.0 L 722.0 668.0 L 721.0 669.0 L 719.0 680.0 L 717.0 684.0 L 717.0 687.0 L 716.0 688.0 L 716.0 691.0 L 715.0 692.0 L 713.0 703.0 L 710.0 710.0 L 710.0 713.0 L 709.0 714.0 L 705.0 728.0 L 703.0 731.0 L 703.0 733.0 L 696.0 747.0 L 696.0 749.0 L 694.0 751.0 L 689.0 762.0 L 687.0 764.0 L 677.0 780.0 L 670.0 788.0 L 670.0 789.0 L 665.0 794.0 L 665.0 795.0 L 660.0 800.0 L 660.0 801.0 L 649.0 812.0 L 649.0 813.0 L 647.0 815.0 L 646.0 815.0 L 644.0 817.0 L 644.0 818.0 L 624.0 837.0 L 623.0 837.0 L 594.0 864.0 L 593.0 864.0 L 567.0 890.0 L 567.0 891.0 L 562.0 896.0 L 562.0 897.0 L 556.0 904.0 L 554.0 902.0 L 555.0 901.0 L 556.0 894.0 L 557.0 893.0 L 561.0 879.0 L 563.0 876.0 L 564.0 871.0 L 576.0 846.0 L 578.0 844.0 L 581.0 837.0 L 583.0 835.0 L 585.0 830.0 L 592.0 820.0 L 593.0 817.0 L 595.0 815.0 L 605.0 799.0 L 608.0 796.0 L 610.0 792.0 L 613.0 789.0 L 615.0 785.0 L 618.0 782.0 L 618.0 781.0 L 621.0 778.0 L 621.0 777.0 L 624.0 774.0 L 624.0 773.0 L 627.0 770.0 L 630.0 765.0 L 634.0 761.0 L 634.0 760.0 L 641.0 752.0 L 641.0 751.0 L 644.0 748.0 L 647.0 743.0 L 651.0 739.0 L 651.0 738.0 L 663.0 724.0 L 666.0 719.0 L 682.0 700.0 L 682.0 699.0 L 685.0 696.0 L 685.0 695.0 L 688.0 692.0 L 691.0 687.0 L 699.0 678.0 L 699.0 677.0 L 717.0 654.0 L 724.0 643.0 L 728.0 639.0 Z
M 751.0 485.0 L 752.0 486.0 L 754.0 486.0 L 760.0 492.0 L 761.0 494.0 L 761.0 496.0 L 762.0 497.0 L 762.0 504.0 L 761.0 505.0 L 761.0 509.0 L 758.0 515.0 L 753.0 521.0 L 748.0 524.0 L 741.0 525.0 L 734.0 522.0 L 732.0 520.0 L 729.0 513.0 L 729.0 506.0 L 730.0 505.0 L 730.0 502.0 L 733.0 495.0 L 738.0 489.0 L 746.0 485.0 Z
M 507.0 485.0 L 510.0 485.0 L 511.0 486.0 L 514.0 486.0 L 516.0 487.0 L 524.0 495.0 L 527.0 502.0 L 527.0 505.0 L 528.0 506.0 L 528.0 513.0 L 527.0 514.0 L 527.0 517.0 L 522.0 523.0 L 518.0 524.0 L 517.0 525.0 L 512.0 525.0 L 505.0 522.0 L 499.0 516.0 L 496.0 509.0 L 496.0 506.0 L 495.0 505.0 L 495.0 497.0 L 496.0 496.0 L 496.0 494.0 L 502.0 487.0 L 506.0 486.0 Z
M 556.0 482.0 L 556.0 480.0 L 558.0 478.0 L 564.0 481.0 L 566.0 481.0 L 569.0 483.0 L 571.0 483.0 L 572.0 484.0 L 574.0 484.0 L 575.0 485.0 L 577.0 485.0 L 584.0 488.0 L 591.0 489.0 L 592.0 490.0 L 602.0 491.0 L 603.0 492.0 L 608.0 492.0 L 609.0 493.0 L 636.0 494.0 L 637.0 493.0 L 649.0 493.0 L 650.0 492.0 L 656.0 492.0 L 657.0 491.0 L 667.0 490.0 L 668.0 489.0 L 675.0 488.0 L 676.0 487.0 L 678.0 487.0 L 679.0 486.0 L 693.0 482.0 L 698.0 479.0 L 700.0 479.0 L 702.0 481.0 L 700.0 484.0 L 698.0 491.0 L 687.0 511.0 L 661.0 539.0 L 661.0 540.0 L 652.0 551.0 L 651.0 554.0 L 647.0 559.0 L 638.0 577.0 L 638.0 579.0 L 636.0 582.0 L 636.0 584.0 L 634.0 587.0 L 632.0 595.0 L 629.0 601.0 L 628.0 601.0 L 626.0 598.0 L 626.0 595.0 L 625.0 594.0 L 622.0 583.0 L 620.0 580.0 L 620.0 578.0 L 608.0 555.0 L 598.0 542.0 L 598.0 541.0 L 593.0 536.0 L 593.0 535.0 L 571.0 512.0 L 571.0 511.0 L 567.0 506.0 L 559.0 490.0 L 559.0 488.0 Z
M 443.0 375.0 L 445.0 376.0 L 445.0 401.0 L 446.0 402.0 L 446.0 412.0 L 447.0 413.0 L 448.0 426.0 L 454.0 451.0 L 466.0 482.0 L 475.0 499.0 L 486.0 515.0 L 502.0 531.0 L 529.0 549.0 L 546.0 564.0 L 559.0 579.0 L 572.0 598.0 L 582.0 617.0 L 585.0 626.0 L 586.0 626.0 L 585.0 619.0 L 578.0 600.0 L 569.0 582.0 L 560.0 569.0 L 537.0 545.0 L 525.0 537.0 L 520.0 532.0 L 522.0 530.0 L 524.0 530.0 L 531.0 526.0 L 534.0 523.0 L 537.0 516.0 L 535.0 480.0 L 536.0 479.0 L 538.0 463.0 L 541.0 459.0 L 544.0 463.0 L 545.0 472.0 L 551.0 492.0 L 558.0 506.0 L 564.0 514.0 L 561.0 518.0 L 569.0 526.0 L 576.0 530.0 L 590.0 544.0 L 597.0 553.0 L 611.0 577.0 L 620.0 601.0 L 624.0 626.0 L 620.0 637.0 L 619.0 644.0 L 617.0 648.0 L 616.0 655.0 L 614.0 659.0 L 613.0 666.0 L 611.0 670.0 L 601.0 710.0 L 599.0 714.0 L 593.0 739.0 L 590.0 746.0 L 590.0 749.0 L 580.0 781.0 L 578.0 792.0 L 576.0 796.0 L 575.0 804.0 L 573.0 808.0 L 571.0 807.0 L 570.0 789.0 L 569.0 788.0 L 569.0 783.0 L 568.0 782.0 L 568.0 777.0 L 565.0 764.0 L 563.0 760.0 L 561.0 750.0 L 559.0 747.0 L 548.0 715.0 L 548.0 712.0 L 541.0 690.0 L 535.0 663.0 L 530.0 647.0 L 531.0 646.0 L 536.0 651.0 L 554.0 687.0 L 554.0 689.0 L 565.0 714.0 L 571.0 732.0 L 574.0 747.0 L 575.0 747.0 L 569.0 714.0 L 559.0 683.0 L 539.0 641.0 L 515.0 602.0 L 484.0 556.0 L 469.0 531.0 L 453.0 498.0 L 443.0 469.0 L 439.0 448.0 L 438.0 447.0 L 438.0 442.0 L 437.0 441.0 L 436.0 420.0 L 435.0 419.0 L 437.0 393.0 L 438.0 392.0 L 439.0 384.0 Z
M 621.0 164.0 L 640.0 164.0 L 641.0 165.0 L 651.0 165.0 L 652.0 166.0 L 657.0 166.0 L 658.0 167.0 L 663.0 167.0 L 664.0 168.0 L 667.0 168.0 L 668.0 169.0 L 672.0 169.0 L 676.0 171.0 L 679.0 171.0 L 680.0 172.0 L 685.0 173.0 L 688.0 175.0 L 693.0 176.0 L 700.0 180.0 L 702.0 180.0 L 706.0 182.0 L 708.0 184.0 L 713.0 186.0 L 715.0 188.0 L 718.0 189.0 L 720.0 191.0 L 727.0 195.0 L 731.0 199.0 L 732.0 199.0 L 736.0 203.0 L 737.0 203.0 L 756.0 222.0 L 756.0 223.0 L 765.0 234.0 L 765.0 235.0 L 769.0 240.0 L 770.0 243.0 L 772.0 245.0 L 773.0 248.0 L 775.0 250.0 L 780.0 260.0 L 780.0 262.0 L 783.0 267.0 L 784.0 272.0 L 786.0 275.0 L 786.0 277.0 L 789.0 284.0 L 789.0 287.0 L 790.0 288.0 L 790.0 291.0 L 791.0 292.0 L 791.0 296.0 L 792.0 297.0 L 792.0 302.0 L 793.0 303.0 L 793.0 309.0 L 794.0 310.0 L 794.0 343.0 L 793.0 344.0 L 793.0 350.0 L 792.0 351.0 L 792.0 356.0 L 791.0 357.0 L 790.0 365.0 L 788.0 369.0 L 788.0 372.0 L 787.0 373.0 L 785.0 381.0 L 778.0 395.0 L 778.0 397.0 L 776.0 399.0 L 770.0 411.0 L 765.0 417.0 L 765.0 418.0 L 761.0 422.0 L 757.0 424.0 L 750.0 430.0 L 744.0 433.0 L 742.0 435.0 L 735.0 437.0 L 734.0 438.0 L 732.0 438.0 L 731.0 439.0 L 725.0 440.0 L 716.0 445.0 L 710.0 452.0 L 707.0 459.0 L 706.0 465.0 L 703.0 468.0 L 679.0 478.0 L 676.0 478.0 L 675.0 479.0 L 672.0 479.0 L 671.0 480.0 L 668.0 480.0 L 667.0 481.0 L 664.0 481.0 L 663.0 482.0 L 659.0 482.0 L 658.0 483.0 L 652.0 483.0 L 651.0 484.0 L 641.0 484.0 L 640.0 485.0 L 619.0 485.0 L 618.0 484.0 L 608.0 484.0 L 607.0 483.0 L 602.0 483.0 L 601.0 482.0 L 597.0 482.0 L 596.0 481.0 L 588.0 480.0 L 587.0 479.0 L 581.0 478.0 L 580.0 477.0 L 572.0 475.0 L 569.0 473.0 L 567.0 473.0 L 558.0 468.0 L 554.0 467.0 L 552.0 465.0 L 551.0 459.0 L 547.0 450.0 L 539.0 443.0 L 533.0 440.0 L 531.0 440.0 L 527.0 438.0 L 524.0 438.0 L 518.0 435.0 L 516.0 435.0 L 503.0 425.0 L 499.0 423.0 L 494.0 418.0 L 494.0 417.0 L 491.0 414.0 L 490.0 411.0 L 488.0 409.0 L 486.0 404.0 L 484.0 402.0 L 479.0 392.0 L 479.0 390.0 L 475.0 382.0 L 475.0 380.0 L 474.0 379.0 L 474.0 377.0 L 473.0 376.0 L 473.0 374.0 L 470.0 367.0 L 470.0 364.0 L 469.0 363.0 L 469.0 359.0 L 468.0 358.0 L 468.0 354.0 L 467.0 353.0 L 467.0 347.0 L 466.0 346.0 L 466.0 337.0 L 465.0 336.0 L 465.0 320.0 L 466.0 319.0 L 466.0 308.0 L 467.0 307.0 L 467.0 301.0 L 468.0 300.0 L 468.0 297.0 L 469.0 296.0 L 470.0 288.0 L 473.0 281.0 L 473.0 278.0 L 475.0 275.0 L 475.0 273.0 L 478.0 267.0 L 478.0 265.0 L 486.0 249.0 L 488.0 247.0 L 490.0 242.0 L 492.0 240.0 L 494.0 236.0 L 497.0 233.0 L 497.0 232.0 L 500.0 229.0 L 503.0 224.0 L 524.0 203.0 L 525.0 203.0 L 534.0 195.0 L 535.0 195.0 L 543.0 189.0 L 546.0 188.0 L 548.0 186.0 L 566.0 177.0 L 568.0 177.0 L 571.0 175.0 L 573.0 175.0 L 576.0 173.0 L 578.0 173.0 L 582.0 171.0 L 585.0 171.0 L 589.0 169.0 L 593.0 169.0 L 594.0 168.0 L 597.0 168.0 L 598.0 167.0 L 603.0 167.0 L 604.0 166.0 L 609.0 166.0 L 610.0 165.0 L 620.0 165.0 Z
M 537.0 396.0 L 536.0 397.0 L 536.0 402.0 L 535.0 404.0 L 530.0 409.0 L 528.0 409.0 L 527.0 410.0 L 527.0 411.0 L 531.0 412.0 L 535.0 416.0 L 535.0 418.0 L 536.0 419.0 L 536.0 423.0 L 537.0 424.0 L 538.0 423.0 L 538.0 418.0 L 539.0 416.0 L 543.0 412.0 L 547.0 411.0 L 546.0 409.0 L 544.0 409.0 L 539.0 404.0 L 538.0 402.0 L 538.0 397.0 Z
M 693.0 363.0 L 692.0 364.0 L 692.0 367.0 L 689.0 370.0 L 686.0 371.0 L 686.0 372.0 L 688.0 372.0 L 692.0 376.0 L 692.0 379.0 L 693.0 380.0 L 694.0 379.0 L 694.0 376.0 L 698.0 372.0 L 700.0 372.0 L 700.0 371.0 L 697.0 370.0 L 694.0 367.0 L 694.0 364.0 Z
M 752.0 306.0 L 752.0 312.0 L 751.0 313.0 L 751.0 317.0 L 750.0 319.0 L 745.0 324.0 L 743.0 324.0 L 742.0 325.0 L 738.0 325.0 L 738.0 326.0 L 743.0 326.0 L 744.0 327.0 L 746.0 327.0 L 750.0 331.0 L 751.0 333.0 L 751.0 338.0 L 752.0 339.0 L 752.0 344.0 L 753.0 344.0 L 753.0 336.0 L 754.0 335.0 L 755.0 331.0 L 759.0 327.0 L 761.0 327.0 L 762.0 326.0 L 767.0 326.0 L 767.0 325.0 L 760.0 324.0 L 755.0 320.0 L 754.0 318.0 L 754.0 315.0 L 753.0 314.0 L 753.0 306.0 Z
M 709.0 225.0 L 707.0 251.0 L 706.0 252.0 L 705.0 262.0 L 704.0 263.0 L 704.0 266.0 L 703.0 267.0 L 702.0 271.0 L 698.0 275.0 L 694.0 277.0 L 688.0 278.0 L 687.0 279.0 L 684.0 279.0 L 683.0 280.0 L 679.0 280.0 L 678.0 281.0 L 668.0 281.0 L 667.0 283.0 L 677.0 283.0 L 678.0 284.0 L 683.0 284.0 L 684.0 285.0 L 691.0 286.0 L 694.0 288.0 L 698.0 289.0 L 702.0 293.0 L 702.0 295.0 L 704.0 299.0 L 704.0 302.0 L 705.0 303.0 L 705.0 307.0 L 706.0 308.0 L 707.0 322.0 L 708.0 323.0 L 708.0 334.0 L 709.0 335.0 L 709.0 340.0 L 710.0 340.0 L 710.0 327.0 L 711.0 326.0 L 711.0 317.0 L 712.0 316.0 L 713.0 304.0 L 714.0 303.0 L 714.0 300.0 L 715.0 299.0 L 716.0 293.0 L 720.0 289.0 L 724.0 287.0 L 726.0 287.0 L 730.0 285.0 L 733.0 285.0 L 734.0 284.0 L 739.0 284.0 L 740.0 283.0 L 750.0 283.0 L 751.0 281.0 L 740.0 281.0 L 739.0 280.0 L 730.0 279.0 L 729.0 278.0 L 724.0 277.0 L 718.0 274.0 L 716.0 272.0 L 715.0 266.0 L 714.0 265.0 L 714.0 261.0 L 713.0 260.0 L 713.0 256.0 L 712.0 255.0 L 712.0 249.0 L 711.0 248.0 L 711.0 239.0 L 710.0 238.0 L 710.0 225.0 Z
M 584.0 224.0 L 580.0 226.0 L 575.0 227.0 L 567.0 231.0 L 565.0 233.0 L 559.0 236.0 L 552.0 242.0 L 551.0 242.0 L 537.0 256.0 L 537.0 257.0 L 533.0 261.0 L 533.0 262.0 L 527.0 270.0 L 526.0 273.0 L 524.0 275.0 L 523.0 279.0 L 519.0 286.0 L 519.0 288.0 L 516.0 295.0 L 516.0 298.0 L 515.0 299.0 L 515.0 302.0 L 514.0 303.0 L 514.0 309.0 L 513.0 310.0 L 513.0 335.0 L 514.0 336.0 L 514.0 341.0 L 515.0 342.0 L 515.0 346.0 L 516.0 348.0 L 517.0 348.0 L 517.0 325.0 L 518.0 324.0 L 519.0 313.0 L 520.0 312.0 L 521.0 305.0 L 522.0 304.0 L 526.0 290.0 L 535.0 272.0 L 537.0 270.0 L 543.0 260.0 L 547.0 256.0 L 547.0 255.0 L 566.0 236.0 L 567.0 236.0 L 573.0 231.0 L 576.0 230.0 L 581.0 226.0 L 584.0 225.0 Z
M 638.0 205.0 L 637.0 207.0 L 634.0 210.0 L 633.0 210.0 L 633.0 211.0 L 635.0 212.0 L 638.0 216.0 L 639.0 214.0 L 643.0 211.0 L 643.0 210.0 L 642.0 210.0 Z
M 619.0 192.0 L 605.0 192.0 L 604.0 193.0 L 592.0 194.0 L 591.0 195.0 L 588.0 195.0 L 584.0 197.0 L 581.0 197.0 L 578.0 199.0 L 576.0 199.0 L 573.0 201.0 L 571.0 201.0 L 563.0 205.0 L 561.0 207.0 L 556.0 209.0 L 554.0 211.0 L 547.0 215.0 L 543.0 219.0 L 542.0 219.0 L 538.0 223.0 L 537.0 223.0 L 527.0 233.0 L 527.0 234.0 L 521.0 240.0 L 521.0 241.0 L 517.0 245.0 L 517.0 246.0 L 513.0 251.0 L 512.0 254.0 L 510.0 256.0 L 509.0 259.0 L 507.0 261.0 L 504.0 267.0 L 504.0 269.0 L 500.0 276.0 L 500.0 278.0 L 499.0 279.0 L 499.0 281.0 L 496.0 288.0 L 496.0 291.0 L 495.0 292.0 L 495.0 294.0 L 494.0 295.0 L 494.0 299.0 L 493.0 300.0 L 493.0 306.0 L 492.0 307.0 L 492.0 317.0 L 491.0 318.0 L 491.0 326.0 L 492.0 327.0 L 492.0 337.0 L 493.0 338.0 L 493.0 344.0 L 494.0 345.0 L 495.0 352.0 L 496.0 353.0 L 500.0 367.0 L 503.0 372.0 L 503.0 374.0 L 505.0 378.0 L 506.0 378.0 L 506.0 375.0 L 503.0 368.0 L 503.0 365.0 L 502.0 364.0 L 502.0 361.0 L 501.0 360.0 L 501.0 356.0 L 500.0 355.0 L 500.0 348.0 L 499.0 347.0 L 499.0 317.0 L 500.0 316.0 L 501.0 304.0 L 502.0 303.0 L 503.0 296.0 L 506.0 289.0 L 506.0 286.0 L 508.0 283.0 L 510.0 276.0 L 515.0 266.0 L 517.0 264.0 L 519.0 259.0 L 521.0 257.0 L 525.0 250.0 L 532.0 242.0 L 532.0 241.0 L 548.0 225.0 L 549.0 225.0 L 557.0 218.0 L 558.0 218.0 L 569.0 210.0 L 587.0 201.0 L 589.0 201.0 L 590.0 200.0 L 592.0 200.0 L 598.0 197.0 L 601.0 197.0 L 605.0 195.0 L 608.0 195.0 L 609.0 194.0 L 612.0 194.0 L 613.0 193.0 L 619.0 193.0 Z" fill="#D6A94A" fill-rule="evenodd"/>
</svg>
